<?xml version="1.0" standalone="no"?>
<!DOCTYPE svg PUBLIC "-//W3C//DTD SVG 20010904//EN"
 "http://www.w3.org/TR/2001/REC-SVG-20010904/DTD/svg10.dtd">
<svg version="1.0" xmlns="http://www.w3.org/2000/svg"
 width="350.000000pt" height="350.000000pt" viewBox="0 0 350.000000 350.000000"
 preserveAspectRatio="xMidYMid meet">
<metadata>
Created by potrace 1.11, written by Peter Selinger 2001-2013
</metadata>
<g transform="translate(0.000000,350.000000) scale(0.100000,-0.100000)"
fill="#000000" stroke="none">
<path d="M0 1750 l0 -1750 1750 0 1750 0 0 1750 0 1750 -1750 0 -1750 0 0
-1750z m2101 1113 c13 -16 12 -17 -3 -4 -10 7 -18 15 -18 17 0 8 8 3 21 -13z
m896 -54 c-1 -10 -8 -18 -15 -16 -14 2 -26 -12 -36 -45 -5 -16 -21 -18 -141
-17 -74 0 -135 2 -135 5 0 3 7 19 16 36 15 30 17 31 30 14 12 -18 14 -17 25 7
7 15 15 25 18 23 3 -3 16 1 28 7 13 8 57 11 117 9 86 -3 95 -5 93 -23z m-1865
12 c-7 -4 -19 -26 -27 -47 l-13 -39 -251 -3 -251 -2 -1 -48 c0 -26 -1 -85 -2
-132 l-2 -85 -43 -9 c-23 -5 -45 -6 -48 -3 -3 3 -7 25 -7 49 l-2 43 45 6 c25
3 39 7 32 7 -7 1 -12 10 -10 20 2 13 -3 16 -22 14 -14 -2 -30 -10 -36 -18 -16
-20 -26 -18 -16 4 5 9 7 66 6 127 -1 60 0 113 2 117 3 4 152 8 332 8 180 0
321 -4 314 -9z m344 -8 c8 -11 13 -13 14 -5 0 6 5 12 11 12 5 0 7 -5 3 -12 -5
-7 -2 -9 8 -5 9 3 21 0 27 -6 16 -16 14 -40 -3 -34 -8 3 -13 -1 -12 -11 1 -15
-12 -17 -94 -19 -103 -1 -139 9 -119 33 6 8 17 14 23 14 6 0 4 -5 -4 -10 -12
-8 -11 -10 8 -10 12 0 22 5 22 10 0 12 37 13 44 1 3 -5 17 -11 32 -14 l25 -4
-25 26 c-14 15 -26 32 -26 39 0 18 51 14 66 -5z m112 -3 c-12 -19 -40 -16 -58
5 -9 11 -4 14 29 13 35 0 38 -2 29 -18z m128 -7 c-7 -38 -22 -49 -42 -32 -12
9 -15 10 -10 2 4 -7 2 -13 -3 -13 -6 0 -11 -7 -11 -15 0 -11 -12 -15 -45 -15
-25 0 -45 4 -45 8 0 5 14 28 30 50 28 40 33 42 80 42 49 0 50 -1 46 -27z m365
-5 l31 -33 -6 33 c-5 32 -5 32 34 32 l40 0 -4 -42 c-2 -24 -4 -46 -5 -50 -2
-12 -231 -10 -231 2 0 6 -12 10 -27 10 -28 0 -71 20 -45 20 6 0 12 5 12 11 0
6 -9 9 -19 6 -17 -4 -61 24 -61 38 0 3 56 5 125 5 l125 0 31 -32z m499 28 c0
-2 -9 -25 -20 -50 -18 -42 -22 -46 -55 -46 -21 0 -35 5 -35 13 1 14 21 43 32
46 26 6 38 15 38 27 0 8 9 14 20 14 11 0 20 -2 20 -4z m520 -21 c0 -26 -14
-33 -25 -14 -4 6 -12 8 -19 6 -7 -3 -13 4 -13 14 -1 15 5 19 28 19 24 0 29 -4
29 -25z m-842 -59 c-2 -18 -7 -21 -30 -18 -15 2 -28 9 -28 14 0 6 7 8 15 4 13
-5 19 5 16 26 0 4 6 5 14 2 8 -3 14 -16 13 -28z m405 4 c-3 -11 -12 -20 -19
-20 -17 0 -18 12 -2 28 18 18 27 15 21 -8z m423 -95 c8 -21 14 -68 14 -118 l0
-83 78 -19 c83 -19 142 -43 142 -57 0 -5 5 -6 11 -3 7 5 7 2 0 -11 -5 -11 -28
-80 -51 -154 -23 -74 -73 -221 -111 -327 -55 -152 -69 -203 -69 -248 0 -56 -1
-57 -25 -51 -22 6 -28 -1 -75 -96 -160 -319 -369 -538 -633 -663 -190 -90
-361 -125 -617 -126 -164 0 -273 13 -475 57 -160 36 -508 144 -665 208 -33 14
-60 21 -60 16 0 -5 8 -11 18 -14 20 -7 21 -30 2 -96 -14 -51 -8 -172 9 -178 6
-2 11 -8 11 -14 0 -23 -28 15 -34 46 -4 21 -15 37 -30 44 -34 15 -47 66 -44
161 l4 80 -51 21 c-27 12 -97 40 -155 62 -58 23 -107 43 -109 44 -12 10 772
651 1084 886 328 247 602 402 820 464 249 71 476 78 770 23 61 -11 120 -23
133 -26 21 -5 22 -2 22 55 0 35 5 64 12 68 7 4 8 3 4 -4 -4 -7 -1 -12 8 -12 9
0 16 8 16 19 0 21 20 81 26 81 3 0 12 -16 20 -35z m-46 -6 c0 -4 -7 -10 -16
-13 -14 -5 -15 -4 -4 9 9 11 9 15 1 15 -7 0 -9 5 -5 11 6 11 23 -5 24 -22z
m-1110 -63 c0 -2 -8 -10 -17 -17 -16 -13 -17 -12 -4 4 13 16 21 21 21 13z
m-1403 -213 c-8 -10 -19 -31 -22 -46 -10 -37 -20 -25 -20 24 0 36 2 39 29 39
27 0 28 -1 13 -17z m53 -163 c0 -5 -19 -27 -42 -49 l-43 -40 41 6 c47 6 52 -2
48 -75 -1 -28 -9 -49 -21 -58 -10 -8 -30 -23 -45 -34 l-27 -21 -3 43 c-2 24
-2 80 0 124 l3 82 37 15 c46 19 52 20 52 7z m-340 -584 c0 -2 -8 -10 -17 -17
-16 -13 -17 -12 -4 4 13 16 21 21 21 13z m2853 -863 c4 -20 0 -23 -29 -23 -27
0 -34 4 -34 19 0 11 -5 23 -10 26 -8 5 -7 11 1 21 10 12 15 11 39 -3 16 -9 30
-27 33 -40z m-14 -47 c-10 -9 -69 -36 -69 -32 0 7 52 35 64 36 5 0 7 -2 5 -4z
m21 -171 l0 -135 -357 0 c-355 0 -358 0 -327 19 17 10 40 31 51 45 l21 26 256
0 256 0 1 23 c1 12 1 39 -1 60 -2 33 3 43 32 68 63 54 68 47 68 -106z m-2552
45 c23 -26 42 -56 42 -66 0 -15 12 -22 52 -32 35 -8 54 -9 56 -2 5 14 49 2 97
-26 47 -27 83 -27 91 -2 6 19 13 22 37 12 13 -5 13 -9 0 -35 l-15 -29 -211 2
-212 3 -2 130 c-1 103 1 126 10 111 7 -11 31 -41 55 -66z m657 -110 c-5 -14
-2 -20 9 -20 9 0 16 6 16 14 0 8 5 18 11 21 5 4 3 -10 -6 -31 -9 -21 -21 -41
-27 -45 -15 -9 -44 -4 -40 7 13 47 25 74 33 74 6 0 7 -9 4 -20z m363 -5 c-3
-3 -9 2 -12 12 -6 14 -5 15 5 6 7 -7 10 -15 7 -18z m328 -1 c-5 -17 0 -35 16
-57 12 -18 16 -27 7 -20 -10 8 -80 12 -222 14 -114 1 -207 3 -207 5 0 2 24 14
53 28 29 13 59 31 66 40 11 13 37 16 153 16 l140 0 -6 -26z m158 4 c3 -13 5
-24 5 -26 0 -2 10 -12 23 -22 l23 -19 -35 -1 c-25 0 -44 9 -70 33 l-35 32 29
-32 30 -33 -28 0 c-26 0 -27 -2 -15 -17 7 -10 2 -8 -12 5 -14 12 -28 20 -31
16 -4 -3 -11 5 -18 18 -11 23 -11 23 6 3 15 -18 16 -18 10 -2 -23 68 -24 67
47 67 59 0 65 -2 71 -22z m46 -35 c0 -19 -13 -9 -16 12 -1 8 2 13 7 9 5 -3 9
-12 9 -21z m234 -13 c9 0 27 5 39 11 21 10 21 10 3 -5 -24 -20 -60 -21 -78 -3
-15 15 -42 11 -32 -5 4 -5 -4 -4 -17 2 -32 17 -37 22 -19 20 33 -5 51 0 44 13
-4 6 4 2 18 -10 13 -13 32 -23 42 -23z"/>
<path d="M2141 2774 c0 -11 3 -14 6 -6 3 7 2 16 -1 19 -3 4 -6 -2 -5 -13z"/>
<path d="M3062 2658 c-1 -7 -4 -36 -8 -64 -5 -43 -4 -51 11 -51 14 0 16 9 12
59 -3 54 -12 84 -15 56z"/>
<path d="M2283 2428 c-40 -6 -73 -13 -73 -17 0 -4 12 -14 28 -22 93 -47 239
-183 305 -282 73 -110 127 -262 127 -359 0 -55 -6 -58 -127 -58 l-82 0 -6 48
c-16 125 -56 223 -125 306 -35 42 -40 53 -34 82 5 27 1 38 -21 60 -23 23 -32
26 -73 21 -35 -4 -55 -1 -77 13 -45 28 -214 82 -233 75 -23 -9 -4 -21 63 -40
33 -9 88 -30 122 -45 60 -27 63 -30 63 -64 0 -53 30 -79 87 -74 43 3 46 2 79
-43 49 -68 90 -155 110 -236 26 -107 33 -102 -152 -95 l-52 2 -6 44 c-24 157
-192 313 -358 332 l-58 7 -1 36 c-2 104 -4 116 -19 116 -12 0 -16 -16 -18 -76
l-3 -77 -58 -6 c-169 -19 -337 -173 -357 -328 l-7 -48 -108 0 -109 0 0 31 c0
38 -24 35 -28 -4 -3 -23 -8 -26 -50 -29 -59 -4 -61 -21 -3 -28 l45 -5 12 -70
c17 -99 47 -172 104 -253 61 -87 141 -155 243 -208 47 -24 77 -45 77 -55 0
-18 25 -42 54 -53 25 -9 86 12 86 30 0 10 6 11 26 4 14 -6 36 -10 50 -10 17 0
24 -5 24 -20 0 -27 14 -25 29 3 10 18 21 22 61 24 95 3 257 57 242 79 -5 9
-31 4 -92 -16 -47 -15 -111 -31 -142 -35 l-58 -6 0 100 0 101 29 0 c16 0 58 9
95 20 50 16 64 24 59 36 -3 10 -12 13 -22 8 -57 -25 -124 -35 -206 -32 -75 3
-101 9 -155 34 -80 37 -146 92 -131 107 6 6 11 26 11 43 0 36 -37 74 -72 74
-28 0 -40 45 -36 130 7 121 68 219 178 290 112 71 288 81 412 23 88 -41 151
-101 189 -179 35 -71 48 -165 31 -226 -8 -29 -7 -38 4 -42 17 -7 23 4 32 56
l8 43 107 3 c123 3 117 10 92 -97 -13 -52 -13 -66 -3 -72 18 -11 27 9 41 96
l12 76 100 -3 100 -3 3 -53 c3 -60 -35 -211 -71 -277 -89 -165 -254 -320 -423
-396 -85 -39 -233 -76 -319 -80 l-70 -4 3 85 c4 82 3 84 -15 67 -14 -13 -18
-34 -19 -85 l-1 -67 -59 2 c-33 0 -99 11 -147 22 -337 80 -593 322 -665 626
l-18 74 -79 -66 c-125 -104 -400 -346 -400 -352 0 -2 27 -15 59 -28 47 -19 61
-22 68 -11 6 10 12 8 26 -9 14 -19 94 -58 137 -66 6 -2 16 -6 23 -11 24 -15
326 -117 461 -156 372 -106 666 -126 900 -59 42 12 90 27 106 34 17 7 59 25
94 39 94 38 250 146 345 239 111 109 224 265 295 406 41 79 101 241 101 269 0
12 4 22 9 22 5 0 21 39 36 88 14 48 31 102 37 120 5 18 8 42 5 52 -3 11 0 21
5 22 9 3 63 207 56 213 -2 1 -13 6 -25 9 -21 7 -23 4 -23 -26 0 -18 -4 -28 -8
-23 -10 14 -72 19 -72 6 0 -6 -4 -11 -10 -11 -13 0 -13 36 0 60 12 22 9 24
-118 50 -228 49 -433 61 -609 38z m817 -264 c0 -3 -15 -12 -32 -20 l-33 -15
34 7 c23 4 31 3 27 -5 -4 -6 -12 -11 -18 -11 -14 0 -48 -30 -48 -42 0 -5 5 -6
10 -3 20 12 9 -12 -15 -35 l-25 -23 0 37 c0 32 27 88 52 106 9 7 48 10 48 4z
m-75 -264 c3 -5 1 -10 -5 -10 -6 0 -8 -6 -4 -12 4 -7 3 -9 -1 -5 -12 10 -15
37 -5 37 5 0 12 -4 15 -10z m-1690 -292 c6 -32 8 -58 5 -58 -4 0 -12 -12 -19
-27 -18 -39 2 -79 45 -93 19 -7 40 -10 46 -8 7 3 24 -6 38 -20 64 -62 197
-122 271 -122 l29 0 0 -100 c0 -55 -4 -100 -9 -100 -32 0 -71 15 -71 27 0 8
-11 25 -25 38 -30 31 -73 32 -108 4 l-27 -20 -66 33 c-81 40 -194 142 -246
222 -41 63 -73 154 -84 236 l-7 51 108 -3 108 -3 12 -57z"/>
<path d="M1685 1833 c-73 -38 -105 -88 -105 -161 0 -90 80 -162 179 -162 53 0
91 9 91 20 0 5 -16 36 -36 70 -20 33 -34 63 -31 67 4 3 42 -3 86 -14 80 -20
80 -20 87 -1 10 32 -6 90 -33 127 -49 64 -168 91 -238 54z"/>
</g>
</svg>
